<?xml version="1.0" encoding="UTF-8" standalone="no"?>
<!DOCTYPE svg PUBLIC "-//W3C//DTD SVG 1.1//EN" "http://www.w3.org/Graphics/SVG/1.1/DTD/svg11.dtd">
<svg width="100%" height="100%" viewBox="0 0 221 181" version="1.1" xmlns="http://www.w3.org/2000/svg" xmlns:xlink="http://www.w3.org/1999/xlink" xml:space="preserve" xmlns:serif="http://www.serif.com/" style="fill-rule:evenodd;clip-rule:evenodd;stroke-linejoin:round;stroke-miterlimit:2;">
    <g transform="matrix(0.48,0,0,0.48,-177.722,-338.14)">
        <g transform="matrix(4.16667,0,0,4.16667,0,0)">
            <path d="M199.139,243.997C199.139,243.997 197.449,243.34 194.524,242.11C193.079,241.434 191.247,240.902 189.207,240.143C187.181,239.352 184.808,238.721 182.254,237.947C181.616,237.756 180.966,237.561 180.301,237.363C179.626,237.206 178.939,237.047 178.242,236.885C176.851,236.548 175.413,236.2 173.936,235.843C172.455,235.507 170.911,235.283 169.35,234.987C167.782,234.717 166.194,234.366 164.552,234.205C162.918,233.993 161.256,233.773 159.574,233.554C157.891,233.375 156.177,233.291 154.455,233.137C153.596,233.069 152.731,233 151.864,232.93C150.997,232.887 150.125,232.889 149.252,232.857C147.506,232.812 145.754,232.764 144,232.719C142.241,232.766 140.481,232.813 138.729,232.86C137.847,232.89 136.958,232.894 136.088,232.936C135.227,233.006 134.369,233.074 133.516,233.143C131.804,233.297 130.106,233.381 128.425,233.559C126.745,233.779 125.085,233.998 123.45,234.211C121.807,234.37 120.219,234.725 118.654,234.995C117.09,235.289 115.548,235.514 114.065,235.85C112.588,236.206 111.15,236.555 109.759,236.891C109.062,237.053 108.376,237.213 107.701,237.369C107.037,237.566 106.386,237.761 105.748,237.952C103.195,238.725 100.823,239.355 98.788,240.148C96.741,240.91 94.905,241.445 93.47,242.115C90.558,243.336 88.861,243.997 88.861,243.997C88.861,243.997 90.408,242.999 93.174,241.322C94.538,240.43 96.292,239.602 98.287,238.591C98.789,238.342 99.303,238.082 99.836,237.816C100.104,237.682 100.374,237.548 100.646,237.41C100.925,237.291 101.209,237.172 101.495,237.051C102.651,236.578 103.863,236.082 105.13,235.564C105.765,235.306 106.413,235.043 107.073,234.774C107.744,234.547 108.428,234.316 109.123,234.082C110.521,233.631 111.966,233.165 113.453,232.688C114.947,232.238 116.503,231.895 118.086,231.479C119.669,231.073 121.291,230.665 122.96,230.406C124.628,230.117 126.323,229.822 128.039,229.525C129.765,229.273 131.532,229.131 133.307,228.941C134.193,228.852 135.086,228.762 135.979,228.672C136.866,228.604 137.746,228.598 138.63,228.561C140.415,228.501 142.208,228.441 144,228.381C145.799,228.443 147.597,228.502 149.389,228.563C150.283,228.598 151.18,228.611 152.068,228.678C152.955,228.768 153.843,228.857 154.724,228.947C156.486,229.135 158.239,229.279 159.962,229.531C161.677,229.828 163.372,230.122 165.04,230.412C166.709,230.669 168.329,231.081 169.914,231.486C171.496,231.9 173.053,232.244 174.547,232.692C176.031,233.172 177.478,233.637 178.876,234.088C179.572,234.322 180.256,234.553 180.927,234.781C181.587,235.049 182.235,235.312 182.869,235.568C184.136,236.088 185.349,236.583 186.501,237.057C186.79,237.178 187.074,237.297 187.354,237.416C187.626,237.553 187.897,237.688 188.165,237.821C188.699,238.088 189.217,238.348 189.719,238.599C191.721,239.609 193.479,240.443 194.83,241.328C197.583,242.996 199.139,243.997 199.139,243.997Z" style="fill:rgb(187,163,95);fill-rule:nonzero;"/>
        </g>
        <g transform="matrix(4.16667,0,0,4.16667,0,0)">
            <path d="M167.968,231.682L167.968,206.392C157.816,197.328 151.235,191.453 146.767,187.464L146.572,187.464L146.572,231.682L167.968,231.682Z" style="fill:rgb(187,163,95);fill-rule:nonzero;"/>
        </g>
        <g transform="matrix(4.16667,0,0,4.16667,0,0)">
            <path d="M146.767,169.07L146.572,169.07L146.572,181.08C151.044,185.072 157.665,190.983 167.968,200.182L167.968,187.998C157.816,178.936 151.235,173.06 146.767,169.07Z" style="fill:rgb(187,163,95);fill-rule:nonzero;"/>
        </g>
        <g transform="matrix(4.16667,0,0,4.16667,0,0)">
            <path d="M141.2,231.682L141.2,199.884L141.006,199.884C136.536,203.873 129.957,209.748 119.805,218.812L119.805,231.682L141.2,231.682Z" style="fill:rgb(187,163,95);fill-rule:nonzero;"/>
        </g>
        <g transform="matrix(4.16667,0,0,4.16667,0,0)">
            <path d="M119.805,200.418L119.805,212.602C130.106,203.403 136.729,197.492 141.2,193.5L141.2,181.49L141.006,181.49C136.536,185.479 129.957,191.355 119.805,200.418Z" style="fill:rgb(187,163,95);fill-rule:nonzero;"/>
        </g>
        <g transform="matrix(4.16667,0,0,4.16667,0,0)">
            <g transform="matrix(0.24,0,0,0.24,-8.80805,16.0555)">
                <text x="475.153px" y="1012.94px" style="font-family:'SFProDisplay-Regular', 'SF Pro Display';font-size:29.167px;fill:rgb(187,163,95);">G<tspan x="497.219px 516.151px 533.717px 551.282px 573.134px 580.574px 598.88px 617.813px 637.8px 663.497px 685.264px 704.239px 724.226px 731.666px 753.133px 761.143px 779.548px " y="1012.94px 1012.94px 1012.94px 1012.94px 1012.94px 1012.94px 1012.94px 1012.94px 1012.94px 1012.94px 1012.94px 1012.94px 1012.94px 1012.94px 1012.94px 1012.94px 1012.94px ">REEN PRAMUKA CITY</tspan></text>
            </g>
        </g>
        <g transform="matrix(4.16667,0,0,4.16667,0,0)">
            <g transform="matrix(0.24,0,0,0.24,-6.40643,8.6413)">
                <text x="478.382px" y="1012.94px" style="font-family:'SFProDisplay-Heavy', 'SF Pro Display';font-weight:800;font-size:45.833px;fill:rgb(187,163,95);">A<tspan x="513.773px 542.025px 577.416px 610.032px 640.388px 682.873px 711.93px 747.322px " y="1012.94px 1012.94px 1012.94px 1012.94px 1012.94px 1012.94px 1012.94px 1012.94px ">PARTMENT</tspan></text>
            </g>
        </g>
    </g>
</svg>
